<svg  viewBox="0 0 67 88" fill="none" xmlns="http://www.w3.org/2000/svg">
<path fill-rule="evenodd" clip-rule="evenodd" d="M33.0007 24C15.8795 24 2 37.8792 2 55C2 72.1208 15.8795 86 33.0007 86C50.122 86 64.0015 72.1208 64.0015 55C64.0015 37.8792 50.122 24 33.0007 24ZM0 55C0 36.7746 14.775 22 33.0007 22C51.2265 22 66.0015 36.7746 66.0015 55C66.0015 73.2254 51.2265 88 33.0007 88C14.775 88 0 73.2254 0 55Z" fill="#FF5001"/>
<path fill-rule="evenodd" clip-rule="evenodd" d="M32 77L32 -4.63765e-08L34 0L34 77L32 77Z" fill="#FF5001"/>
<path fill-rule="evenodd" clip-rule="evenodd" d="M11.4921 53.131L12.718 53.8176C21.2923 58.62 28.3181 65.7335 32.9931 74.3281C37.7131 65.587 44.9544 58.2819 53.7394 53.5454L54.5223 53.1233L55.4779 54.8769L54.695 55.299C45.7077 60.1445 38.4923 67.8592 34.0001 77L33.0001 76.5L32.0001 77C31.8356 76.5115 31.6361 76.0349 31.3928 75.5801C26.8987 67.1803 20.0791 60.2296 11.7341 55.5557L10.5081 54.8691L11.4921 53.131Z" fill="#FF5001"/>
</svg>
